<svg width="115" height="115" viewBox="0 0 115 115" fill="none" xmlns="http://www.w3.org/2000/svg">
<rect width="115" height="115" fill="#131313"/>
<path d="M24.4681 39.1362H17.1277V46.4767H24.4681V39.1362Z" fill="white"/>
<path d="M31.8085 31.7954H24.4681V39.1358H31.8085V31.7954Z" fill="white"/>
<path d="M31.8085 46.4766H24.4681V53.817H31.8085V46.4766Z" fill="white"/>
<path d="M24.4681 53.8169H17.1277V61.1573H24.4681V53.8169Z" fill="white"/>
<path d="M46.4894 46.4766H39.1489V53.817H46.4894V46.4766Z" fill="white"/>
<path d="M39.1489 53.8169H31.8085V61.1573H39.1489V53.8169Z" fill="white"/>
<path d="M53.8298 39.1489H61.1702V31.8085H53.8298V39.1489Z" fill="white"/>
<path d="M46.4893 46.4893H53.8298V39.1488H46.4893V46.4893Z" fill="white"/>
<path d="M46.4893 31.8086H53.8298V24.4682H46.4893V31.8086Z" fill="white"/>
<path d="M53.8298 24.4683H61.1702V17.1278H53.8298V24.4683Z" fill="white"/>
<path d="M31.8085 31.8086H39.1489V24.4682H31.8085V31.8086Z" fill="white"/>
<path d="M39.1489 24.4683H46.4893V17.1278H39.1489V24.4683Z" fill="white"/>
<path d="M90.5319 39.1362H97.8723V46.4767H90.5319V39.1362Z" fill="white"/>
<path d="M83.1915 31.7954H90.5319V39.1358H83.1915V31.7954Z" fill="white"/>
<path d="M83.1915 46.4766H90.5319V53.817H83.1915V46.4766Z" fill="white"/>
<path d="M90.5319 53.8169H97.8723V61.1573H90.5319V53.8169Z" fill="white"/>
<path d="M68.5106 46.4766H75.8511V53.817H68.5106V46.4766Z" fill="white"/>
<path d="M75.8511 53.8169H83.1915V61.1573H75.8511V53.8169Z" fill="white"/>
<path d="M61.1702 39.1489H53.8298V31.8085H61.1702V39.1489Z" fill="white"/>
<path d="M68.5107 46.4893H61.1702V39.1488H68.5107V46.4893Z" fill="white"/>
<path d="M68.5107 31.8086H61.1702V24.4682H68.5107V31.8086Z" fill="white"/>
<path d="M61.1702 24.4683H53.8298V17.1278H61.1702V24.4683Z" fill="white"/>
<path d="M83.1915 31.8086H75.8511V24.4682H83.1915V31.8086Z" fill="white"/>
<path d="M75.8511 24.4683H68.5107V17.1278H75.8511V24.4683Z" fill="white"/>
<path d="M90.5319 75.8511H97.8723V68.5106H90.5319V75.8511Z" fill="white"/>
<path d="M83.1915 83.1914H90.5319V75.851H83.1915V83.1914Z" fill="white"/>
<path d="M83.1915 68.5107H90.5319V61.1703H83.1915V68.5107Z" fill="white"/>
<path d="M90.5319 61.1704H97.8723V53.83H90.5319V61.1704Z" fill="white"/>
<path d="M68.5106 68.5107H75.8511V61.1703H68.5106V68.5107Z" fill="white"/>
<path d="M75.8511 61.1704H83.1915V53.83H75.8511V61.1704Z" fill="white"/>
<path d="M61.1702 75.8384H53.8298V83.1788H61.1702V75.8384Z" fill="white"/>
<path d="M68.5107 68.4976H61.1702V75.838H68.5107V68.4976Z" fill="white"/>
<path d="M68.5107 83.1787H61.1702V90.5191H68.5107V83.1787Z" fill="white"/>
<path d="M61.1702 90.519H53.8298V97.8595H61.1702V90.519Z" fill="white"/>
<path d="M83.1915 83.1787H75.8511V90.5191H83.1915V83.1787Z" fill="white"/>
<path d="M75.8511 90.519H68.5107V97.8595H75.8511V90.519Z" fill="white"/>
<path d="M24.4681 75.8511H17.1277V68.5106H24.4681V75.8511Z" fill="white"/>
<path d="M31.8085 83.1914H24.4681V75.851H31.8085V83.1914Z" fill="white"/>
<path d="M31.8085 68.5107H24.4681V61.1703H31.8085V68.5107Z" fill="white"/>
<path d="M24.4681 61.1704H17.1277V53.83H24.4681V61.1704Z" fill="white"/>
<path d="M46.4894 68.5107H39.1489V61.1703H46.4894V68.5107Z" fill="white"/>
<path d="M39.1489 61.1704H31.8085V53.83H39.1489V61.1704Z" fill="white"/>
<path d="M53.8298 75.8384H61.1702V83.1788H53.8298V75.8384Z" fill="white"/>
<path d="M46.4893 68.4976H53.8298V75.838H46.4893V68.4976Z" fill="white"/>
<path d="M46.4893 83.1787H53.8298V90.5191H46.4893V83.1787Z" fill="white"/>
<path d="M53.8298 90.519H61.1702V97.8595H53.8298V90.519Z" fill="white"/>
<path d="M31.8085 83.1787H39.1489V90.5191H31.8085V83.1787Z" fill="white"/>
<path d="M39.1489 90.519H46.4893V97.8595H39.1489V90.519Z" fill="white"/>
</svg>
